<?xml version="1.0" encoding="UTF-8"?>
<svg version="1.1" xmlns="http://www.w3.org/2000/svg" width="64" height="64">
<path d="M0 0 C3.3 0 6.6 0 10 0 C10 0.99 10 1.98 10 3 C10.85549438 2.99214478 10.85549438 2.99214478 11.72827148 2.98413086 C14.29800323 2.96341779 16.86771747 2.9503581 19.4375 2.9375 C20.78424805 2.92493164 20.78424805 2.92493164 22.15820312 2.91210938 C23.01220703 2.90888672 23.86621094 2.90566406 24.74609375 2.90234375 C25.53685303 2.89710693 26.3276123 2.89187012 27.14233398 2.88647461 C29 3 29 3 30 4 C30.0883967 6.3756852 30.11530305 8.72208674 30.09765625 11.09765625 C30.0962413 11.80651474 30.09482635 12.51537323 30.09336853 13.24571228 C30.08775443 15.51801712 30.07519963 17.79022475 30.0625 20.0625 C30.05748681 21.59960796 30.05292359 23.13671745 30.04882812 24.67382812 C30.0386297 28.44928667 30.01905732 32.22453404 30 36 C23.4 36 16.8 36 10 36 C10 44.58 10 53.16 10 62 C6.7 62 3.4 62 0 62 C0 53.42 0 44.84 0 36 C-6.6 36 -13.2 36 -20 36 C-20.02291161 31.46095634 -20.04283781 26.92211198 -20.05493164 22.38305664 C-20.0599714 20.83780234 -20.0668032 19.29255284 -20.07543945 17.74731445 C-20.08752076 15.53074971 -20.09323173 13.31424782 -20.09765625 11.09765625 C-20.10281754 10.4028566 -20.10797882 9.70805695 -20.11329651 8.99220276 C-20.11349277 7.3277067 -20.06189129 5.66334501 -20 4 C-19 3 -19 3 -17.14233398 2.88647461 C-15.95619507 2.89432983 -15.95619507 2.89432983 -14.74609375 2.90234375 C-13.46508789 2.90717773 -13.46508789 2.90717773 -12.15820312 2.91210938 C-11.26037109 2.92048828 -10.36253906 2.92886719 -9.4375 2.9375 C-8.53580078 2.94201172 -7.63410156 2.94652344 -6.70507812 2.95117188 C-4.46998686 2.96299775 -2.23502563 2.9794778 0 3 C0 2.01 0 1.02 0 0 Z " fill="#E53A50" transform="translate(27,1)"/>
<path d="M0 0 C1.39456452 0.00667256 2.78911118 0.01863093 4.18359375 0.03515625 C4.89451172 0.03966797 5.60542969 0.04417969 6.33789062 0.04882812 C8.09899388 0.06064761 9.86005411 0.07858362 11.62109375 0.09765625 C13.76445536 3.57429005 13.83387001 6.3099482 13.74609375 10.34765625 C13.72804688 11.4253125 13.71 12.50296875 13.69140625 13.61328125 C13.66820313 14.433125 13.645 15.25296875 13.62109375 16.09765625 C10.32109375 16.09765625 7.02109375 16.09765625 3.62109375 16.09765625 C3.95109375 18.40765625 4.28109375 20.71765625 4.62109375 23.09765625 C2.64109375 24.08765625 2.64109375 24.08765625 0.62109375 25.09765625 C-4.44241438 17.24921864 -5.27928599 10.34584245 -4.37890625 1.09765625 C-3.37890625 0.09765625 -3.37890625 0.09765625 0 0 Z " fill="#FECDBB" transform="translate(31.37890625,7.90234375)"/>
<path d="M0 0 C3.3 0 6.6 0 10 0 C10 8.58 10 17.16 10 26 C6.7 26 3.4 26 0 26 C0 17.42 0 8.84 0 0 Z " fill="#964E1D" transform="translate(27,37)"/>
<path d="M0 0 C0.99 0.33 1.98 0.66 3 1 C3 11.56 3 22.12 3 33 C-13.5 33 -30 33 -47 33 C-47 32.01 -47 31.02 -47 30 C-31.49 30 -15.98 30 0 30 C0 20.1 0 10.2 0 0 Z " fill="#BF022C" transform="translate(54,4)"/>
<path d="M0 0 C2.64 0 5.28 0 8 0 C8.02685412 2.31243792 8.04632841 4.6249627 8.0625 6.9375 C8.07410156 8.22527344 8.08570313 9.51304688 8.09765625 10.83984375 C8 14 8 14 7 15 C4.69 15 2.38 15 0 15 C0 10.05 0 5.1 0 0 Z " fill="#5E5854" transform="translate(19,8)"/>
<path d="M0 0 C0.99 0.33 1.98 0.66 3 1 C2.88201748 5.11193736 2.75778941 9.22363288 2.62768555 13.33520508 C2.58428566 14.73489199 2.54261436 16.13463359 2.50268555 17.53442383 C2.44510555 19.54261495 2.38086 21.55061149 2.31640625 23.55859375 C2.27974854 24.76829834 2.24309082 25.97800293 2.20532227 27.22436523 C2 30 2 30 1 31 C-0.43142861 31.11701584 -1.86841204 31.16721305 -3.30444336 31.18945312 C-4.21886703 31.20617065 -5.13329071 31.22288818 -6.07542419 31.2401123 C-7.07018265 31.25368774 -8.0649411 31.26726318 -9.08984375 31.28125 C-10.10470352 31.29965942 -11.11956329 31.31806885 -12.16517639 31.33703613 C-15.4225567 31.39599296 -18.67999038 31.44871573 -21.9375 31.5 C-26.2175633 31.56749197 -30.49745249 31.64118645 -34.77734375 31.71875 C-35.77007797 31.73232544 -36.76281219 31.74590088 -37.78562927 31.7598877 C-39.16199303 31.78496399 -39.16199303 31.78496399 -40.56616211 31.81054688 C-41.37588974 31.82307495 -42.18561737 31.83560303 -43.0198822 31.84851074 C-45.07555099 31.88040816 -45.07555099 31.88040816 -47 33 C-47 32.01 -47 31.02 -47 30 C-31.49 30 -15.98 30 0 30 C0 20.1 0 10.2 0 0 Z " fill="#D30F33" transform="translate(54,4)"/>
<path d="M0 0 C3.3 0 6.6 0 10 0 C10 0.99 10 1.98 10 3 C6.7 3 3.4 3 0 3 C0 2.01 0 1.02 0 0 Z " fill="#974F1E" transform="translate(27,1)"/>
</svg>
