<?xml version="1.0" encoding="UTF-8"?>
<svg version="1.1" xmlns="http://www.w3.org/2000/svg" width="40" height="40">
<path d="M0 0 C3.63 0 7.26 0 11 0 C11 3.63 11 7.26 11 11 C9.68 10.34 8.36 9.68 7 9 C6.34 9 5.68 9 5 9 C2.36275424 14.27449152 2.33772834 19.23050035 3.6875 24.875 C5.47849536 27.77470677 6.69296769 28.20918793 10 29 C14.60617263 29.4382391 18.95936463 29.49568655 23 27 C25.41820767 23.08480662 25.87835011 18.48836906 25 14 C23.00071003 10.50124255 20.34708491 8.23138994 17 6 C16.8125 2.875 16.8125 2.875 17 0 C22.96828971 0.70215173 26.68136909 3.33436096 30.375 8 C32.95560813 13.03110156 32.73813578 18.51244508 32 24 C30.36388399 28.89959875 27.26730981 32.15512679 23 35 C17.64594413 36.78468529 11.20359806 37.04514547 5.796875 35.28125 C0.9564749 32.67164299 -2.26963139 29.19110583 -4 24 C-4.68417544 16.32826231 -4.26588389 11.39882584 0 5 C0 3.68 0 2.36 0 1 C0 0.67 0 0.34 0 0 Z " fill="#537EBB" transform="translate(6,2)"/>
<path d="M0 0 C2.31 0 4.62 0 7 0 C7 2.31 7 4.62 7 7 C6.01 6.67 5.02 6.34 4 6 C0.48898736 8.79080492 -1.35510939 10.97262226 -2.0625 15.375 C-2.34921082 20.43460274 -1.10354744 23.02109303 2 27 C5.54021412 29.63457795 8.25231844 30.22911264 12.5625 30 C17.0600773 29.31097721 19.19799115 27.65110245 22 24 C24.25424107 20.67231081 24.46775174 17.97588979 24 14 C22.02680453 8.98701692 19.72115545 6.62286414 15 4 C15 3.01 15 2.02 15 1 C19.27729087 1.4867262 21.02058516 2.57796349 23.75 5.875 C24.63945313 6.92300781 24.63945313 6.92300781 25.546875 7.9921875 C28.44084772 11.99084873 28.48064975 16.23884683 28 21 C26.17304796 26.37338834 22.67606955 29.91278849 18 33 C14.08542235 34.28169604 10.07588304 34.55974409 6 34 C0.91606835 31.40819171 -3.502565 27.45561923 -5.8125 22.125 C-6.43512294 15.0686067 -6.56059304 11.73331696 -2 6 C-1.4225 5.21625 -0.845 4.4325 -0.25 3.625 C0.1625 3.08875 0.575 2.5525 1 2 C0.67 1.34 0.34 0.68 0 0 Z " fill="#87B3EC" transform="translate(9,3)"/>
</svg>
