<?xml version="1.0" encoding="UTF-8"?>
<svg version="1.1" xmlns="http://www.w3.org/2000/svg" width="96" height="96">
<path d="M0 0 C3.83923876 1.56413431 6.09936232 4.09936232 9 7 C13.00789965 9.88511925 16.4417826 10.5957306 21.3125 11.1875 C23.19388672 11.42533203 23.19388672 11.42533203 25.11328125 11.66796875 C26.06589844 11.77753906 27.01851562 11.88710938 28 12 C28.02578125 12.7734375 28.0515625 13.546875 28.078125 14.34375 C28.43319217 20.86407444 28.9494857 26.66360814 33 32 C33.67659668 32.34264893 34.35319336 32.68529785 35.05029297 33.03833008 C37.74575165 35.75032739 37.46520381 37.69734655 37.47883606 41.41287231 C37.45257393 42.69736771 37.45257393 42.69736771 37.42578125 44.0078125 C37.42084908 45.32965042 37.42084908 45.32965042 37.41581726 46.67819214 C37.40539761 48.53928011 37.38544961 50.40033556 37.35668945 52.26123047 C37.31256252 55.12094815 37.29524892 57.97982759 37.28320312 60.83984375 C37.26978167 62.64584554 37.25485942 64.45183693 37.23828125 66.2578125 C37.23089432 67.11819122 37.22350739 67.97856995 37.21589661 68.86502075 C37.11827481 74.88172519 37.11827481 74.88172519 36 76 C33.8273732 76.09956278 31.65146894 76.12799719 29.4765625 76.12939453 C28.79527283 76.13114685 28.11398315 76.13289917 27.41204834 76.13470459 C25.14967333 76.13912242 22.88737587 76.13618538 20.625 76.1328125 C19.0594074 76.13348556 17.4938149 76.1344556 15.92822266 76.13571167 C12.64289355 76.13718855 9.35759158 76.13503441 6.07226562 76.13037109 C1.85179484 76.1246738 -2.36861236 76.12795286 -6.58908081 76.13394356 C-9.82316572 76.13754944 -13.05723545 76.13641046 -16.2913208 76.13381577 C-17.84792081 76.13314657 -19.40452218 76.13397466 -20.96112061 76.13629532 C-23.13297196 76.1388223 -25.30471896 76.13498065 -27.4765625 76.12939453 C-28.71486816 76.12859894 -29.95317383 76.12780334 -31.22900391 76.12698364 C-34 76 -34 76 -35 75 C-35.31692138 69.37325543 -35.356873 63.74414872 -35.4050293 58.109375 C-35.42659721 56.21010136 -35.460686 54.31092679 -35.50756836 52.41210938 C-35.57455749 49.67532925 -35.60202721 46.94060926 -35.62109375 44.203125 C-35.64892441 43.35711731 -35.67675507 42.51110962 -35.70542908 41.63946533 C-35.68517366 35.81928714 -35.68517366 35.81928714 -33.68582153 33.42858887 C-32.18338086 32.20856185 -30.59329937 31.09872244 -29 30 C-25.66617636 24.2520282 -25.34399303 18.55959119 -25 12 C-23.74896484 11.88785156 -23.74896484 11.88785156 -22.47265625 11.7734375 C-13.81264383 10.76161474 -6.85203174 8.85390547 -1.2578125 1.8046875 C-0.63519531 0.91136719 -0.63519531 0.91136719 0 0 Z " fill="#6B1D98" transform="translate(47,10)"/>
<path d="M0 0 C3.83923876 1.56413431 6.09936232 4.09936232 9 7 C13.00789965 9.88511925 16.4417826 10.5957306 21.3125 11.1875 C23.19388672 11.42533203 23.19388672 11.42533203 25.11328125 11.66796875 C26.06589844 11.77753906 27.01851562 11.88710938 28 12 C28.02578125 12.7734375 28.0515625 13.546875 28.078125 14.34375 C28.43720609 20.93778457 29.01550189 26.55775868 33 32 C33.7425 32.515625 34.485 33.03125 35.25 33.5625 C35.8275 34.036875 36.405 34.51125 37 35 C37.25 38.6875 37.25 38.6875 37 42 C36.34 41.67 35.68 41.34 35 41 C32.0851463 40.84279903 29.19060364 40.74144346 26.2734375 40.68359375 C24.97921371 40.6524221 24.97921371 40.6524221 23.65884399 40.62062073 C20.89764507 40.55513966 18.13634962 40.49624702 15.375 40.4375 C13.50519828 40.3943134 11.63540638 40.35069907 9.765625 40.30664062 C5.17718272 40.19945976 0.58864317 40.09818825 -4 40 C-3.88521587 37.93690624 -3.75773802 35.87451646 -3.625 33.8125 C-3.55539063 32.66394531 -3.48578125 31.51539062 -3.4140625 30.33203125 C-2.9957068 26.96545186 -2.49424416 23.49424416 0 21 C-1.95894361 21.11306697 -1.95894361 21.11306697 -4 22 C-5.91018825 25.8203765 -6.53049826 29.60852338 -7.125 33.8125 C-7.29257812 34.97394531 -7.46015625 36.13539062 -7.6328125 37.33203125 C-7.75398438 38.21246094 -7.87515625 39.09289063 -8 40 C-8.74685059 40.02505615 -9.49370117 40.0501123 -10.26318359 40.07592773 C-13.63397267 40.19168213 -17.00446783 40.31450128 -20.375 40.4375 C-21.550625 40.47681641 -22.72625 40.51613281 -23.9375 40.55664062 C-25.05898438 40.59853516 -26.18046875 40.64042969 -27.3359375 40.68359375 C-28.89127197 40.73858032 -28.89127197 40.73858032 -30.47802734 40.79467773 C-32.99425166 40.84164223 -32.99425166 40.84164223 -35 42 C-35.375 38.8125 -35.375 38.8125 -35 35 C-32.1875 32.5 -32.1875 32.5 -30.53125 31.2890625 C-26.20975051 27.65106548 -25.81309982 22.33232783 -25.3125 17.0625 C-25.19672087 15.37575694 -25.08854135 13.68839195 -25 12 C-23.74896484 11.88785156 -23.74896484 11.88785156 -22.47265625 11.7734375 C-13.81264383 10.76161474 -6.85203174 8.85390547 -1.2578125 1.8046875 C-0.63519531 0.91136719 -0.63519531 0.91136719 0 0 Z " fill="#FEE838" transform="translate(47,10)"/>
<path d="M0 0 C3.21042867 1.27079468 4.50630841 2.01993078 6.0546875 5.09375 C7.26357805 8.81033912 7.70228604 12.43972903 8.125 16.3125 C8.41375 18.849375 8.7025 21.38625 9 24 C2.73 24 -3.54 24 -10 24 C-9.03225806 8.03225806 -9.03225806 8.03225806 -6 5 C-7.95894361 5.11306697 -7.95894361 5.11306697 -10 6 C-11.91018825 9.8203765 -12.53049826 13.60852338 -13.125 17.8125 C-13.37636719 19.55466797 -13.37636719 19.55466797 -13.6328125 21.33203125 C-13.75398438 22.21246094 -13.87515625 23.09289062 -14 24 C-15.32 24 -16.64 24 -18 24 C-18.4714579 17.24243684 -17.42223322 10.32426078 -15 4 C-10.35912824 -0.77481882 -6.32109188 -0.85251568 0 0 Z " fill="#FF4203" transform="translate(53,26)"/>
<path d="M0 0 C0.78375 0.04125 1.5675 0.0825 2.375 0.125 C1.385 1.115 0.395 2.105 -0.625 3.125 C-1.615 8.735 -2.605 14.345 -3.625 20.125 C9.245 20.125 22.115 20.125 35.375 20.125 C36.365 22.105 36.365 22.105 37.375 24.125 C13.615 24.125 -10.145 24.125 -34.625 24.125 C-33.965 22.805 -33.305 21.485 -32.625 20.125 C-24.375 20.125 -16.125 20.125 -7.625 20.125 C-7.50125 18.083125 -7.3775 16.04125 -7.25 13.9375 C-6.42384226 0.30589725 -6.42384226 0.30589725 0 0 Z " fill="#9C28AF" transform="translate(46.625,29.875)"/>
<path d="M0 0 C23.76 0 47.52 0 72 0 C71.67 1.32 71.34 2.64 71 4 C47.9 4 24.8 4 1 4 C0.67 2.68 0.34 1.36 0 0 Z " fill="#9B26AF" transform="translate(12,82)"/>
<path d="M0 0 C2.73046875 -0.3046875 2.73046875 -0.3046875 6 0 C8.30078125 2.1171875 8.30078125 2.1171875 10.3125 4.875 C10.98925781 5.77992187 11.66601562 6.68484375 12.36328125 7.6171875 C14 10 14 10 15 12 C15.33 9.36 15.66 6.72 16 4 C15.34 4 14.68 4 14 4 C14 2.68 14 1.36 14 0 C16.64 0 19.28 0 22 0 C22 1.32 22 2.64 22 4 C21.34 4 20.68 4 20 4 C20 9.28 20 14.56 20 20 C14.21745427 18.84349085 13.84150446 18.08832013 10.6875 13.4375 C9.99011719 12.42558594 9.29273437 11.41367188 8.57421875 10.37109375 C8.05472656 9.58863281 7.53523438 8.80617188 7 8 C6.67 10.64 6.34 13.28 6 16 C6.66 16 7.32 16 8 16 C8 17.32 8 18.64 8 20 C5.36 20 2.72 20 0 20 C0 18.68 0 17.36 0 16 C0.66 16 1.32 16 2 16 C2 12.04 2 8.08 2 4 C1.34 4 0.68 4 0 4 C0 2.68 0 1.36 0 0 Z " fill="#FCE63C" transform="translate(58,58)"/>
<path d="M0 0 C2.64 0 5.28 0 8 0 C8 1.32 8 2.64 8 4 C7.34 4 6.68 4 6 4 C6.66 5.65 7.32 7.3 8 9 C8.66 8.01 9.32 7.02 10 6 C14.75 6.75 14.75 6.75 17 9 C17.33 7.35 17.66 5.7 18 4 C17.34 4 16.68 4 16 4 C16 2.68 16 1.36 16 0 C18.64 0 21.28 0 24 0 C24 1.32 24 2.64 24 4 C23.34 4 22.68 4 22 4 C21.34 9.28 20.68 14.56 20 20 C18.35 19.67 16.7 19.34 15 19 C14.34 16.69 13.68 14.38 13 12 C12.34 12 11.68 12 11 12 C10.34 14.31 9.68 16.62 9 19 C7.35 19.33 5.7 19.66 4 20 C3.34 14.72 2.68 9.44 2 4 C1.34 4 0.68 4 0 4 C0 2.68 0 1.36 0 0 Z " fill="#F9E33E" transform="translate(16,58)"/>
<path d="M0 0 C2.64 0 5.28 0 8 0 C8 1.32 8 2.64 8 4 C7.34 4 6.68 4 6 4 C6 7.96 6 11.92 6 16 C6.66 16 7.32 16 8 16 C8 17.32 8 18.64 8 20 C5.36 20 2.72 20 0 20 C0 18.68 0 17.36 0 16 C0.66 16 1.32 16 2 16 C2 12.04 2 8.08 2 4 C1.34 4 0.68 4 0 4 C0 2.68 0 1.36 0 0 Z " fill="#FFEB3B" transform="translate(44,58)"/>
<path d="M0 0 C0.78375 0.04125 1.5675 0.0825 2.375 0.125 C1.66186646 0.74338745 1.66186646 0.74338745 0.93432617 1.37426758 C-0.85438545 3.38254237 -1.1595692 4.51060491 -1.57421875 7.13671875 C-1.69990234 7.89404297 -1.82558594 8.65136719 -1.95507812 9.43164062 C-2.07302734 10.21732422 -2.19097656 11.00300781 -2.3125 11.8125 C-2.44205078 12.60978516 -2.57160156 13.40707031 -2.70507812 14.22851562 C-3.02257396 16.19228614 -3.32523325 18.15844511 -3.625 20.125 C-4.945 20.125 -6.265 20.125 -7.625 20.125 C-7.51021587 18.06190624 -7.38273802 15.99951646 -7.25 13.9375 C-7.18039063 12.78894531 -7.11078125 11.64039063 -7.0390625 10.45703125 C-6.44554372 5.68088484 -5.61529893 0.26739519 0 0 Z " fill="#FFBFAB" transform="translate(46.625,29.875)"/>
</svg>
